<svg aria-labelledby="astro-logo-title" width="57" height="15" viewBox="0 0 57 15"><title id="astro-logo-title">Astro</title><defs><linearGradient id="linear-gradient" x1="2.27" y1="12.6" x2="8.5" y2="9.63" gradientUnits="userSpaceOnUse"><stop offset="0" stop-color="#d83333"></stop><stop offset="1" stop-color="#f041ff"></stop></linearGradient></defs><path d="M22.01,4.9c0-1.6-.94-2.64-4.05-2.64s-2.73.19-3.86.57c.09.47.28,1.32.28,1.88.94-.47,2.35-.66,3.39-.66s1.88.38,1.88,1.04v.25c-.47-.08-1.13-.16-1.88-.16-2.45,0-3.67.57-3.67,1.98s.85,1.98,2.64,1.98,2.64-.38,3.01-1.41v.66c0,.47,0,.57.47.57h1.98c-.09-.28-.19-1.13-.19-1.88v-2.17ZM19.85,6.4c0,.75-.94,1.22-2.26,1.22s-1.13-.19-1.13-.66.38-.66,1.22-.66,1.41,0,2.26.09h-.09ZM7.8.38l3.2,8.76s-1.51-.94-3.77-.94l-1.41-4.43c0-.19-.19-.38-.38-.38s-.38.19-.38.38l-1.41,4.43C2.04,8.19.43,8.88,0,9.08h0S3.18.38,3.18.38c.09-.19.28-.38.47-.38h3.67c.19,0,.47.09.47.38ZM30.87,7.06c0,1.41-.75,2.17-3.86,2.17s-3.96-.85-3.96-2.17v-.28h1.98c0,.47.66.66,2.07.66s1.7-.19,1.7-.47-.28-.57-2.26-.57c-2.73-.09-3.48-.66-3.48-2.07s1.22-2.07,3.77-2.07,3.86.47,3.86,2.07v.28h-1.98c0-.47-.47-.66-1.88-.66s-1.7.28-1.7.47.19.47,2.35.57c2.73.19,3.39.66,3.39,2.07ZM49.14,2.26c-2.64,0-4.33,1.04-4.33,3.39s1.6,3.58,4.33,3.58,4.43-1.22,4.43-3.58-1.79-3.39-4.43-3.39ZM49.14,7.44c-1.32,0-2.17-.47-2.17-1.7s.85-1.7,2.17-1.7,2.17.47,2.17,1.7c0,1.13-.85,1.7-2.17,1.7ZM37.65,6.78c0,.66.19,1.41.19,1.98-.85.19-.09.28-2.45.28s-3.11-1.13-3.11-2.54v-2.26h-.75v-1.51c.75-.19,2.17-.85,2.92-1.6l.09-.19v1.41h3.11v1.88h-3.11v1.79c0,.75.66,1.04,1.32,1.04s1.32-.09,1.79-.28ZM43.2,2.45c.57,0,1.04.09,1.41.19-.09.47-.19,1.51-.19,2.07-.38-.19,0-.19-1.41-.19s-1.98.47-1.98,1.88v2.64h-2.45V2.45h2.17v1.51l.09.09c.38-1.13,1.22-1.6,2.35-1.6Z" style="fill:#ffffff;"></path><path d="M3.56,11.96c-.66-.57-.85-1.79-.57-2.73.47.57,1.13.75,1.79.85,1.04.19,1.98.09,2.92-.38.09,0,.19-.09.28-.19,0,.28.09.47,0,.75,0,.66-.38,1.13-.94,1.51-.19.19-.38.28-.66.47-.66.47-.85.94-.57,1.7h0c-.38-.19-.57-.38-.75-.66-.19-.28-.28-.66-.28-.94v-.57c0-.38-.28-.57-.66-.66-.38,0-.66.19-.75.57h0l.19.28Z" style="fill:url(#linear-gradient);"></path></svg>