<svg fill-rule="evenodd" clip-rule="evenodd" viewBox="0 0 24 24"><path d="M3.87 0c-2.13,0 -3.87,1.74 -3.87,3.87l0 15.6c0,2.5 2.04,4.53 4.53,4.53l15.6 0c2.14,0 3.87,-1.74 3.87,-3.87l0 -16.26c0,-2.13 -1.73,-3.87 -3.87,-3.87l-16.26 0zm0 1.64l16.26 0c1.23,0 2.23,1 2.23,2.23l0 16.26c0,1.23 -1,2.23 -2.23,2.23l-15.6 0c-1.59,0 -2.89,-1.3 -2.89,-2.89l0 -15.6c0,-1.23 1,-2.23 2.23,-2.23zm1.67 16.46c0,0.5 0.41,0.91 0.92,0.91l11.08 0c0.51,0 0.92,-0.41 0.92,-0.91 0,-0.51 -0.41,-0.91 -0.92,-0.91l-11.08 0c-0.51,0 -0.92,0.4 -0.92,0.91zm0 -6.1c0,0.5 0.41,0.91 0.92,0.91l11.08 0c0.51,0 0.92,-0.41 0.92,-0.91 0,-0.5 -0.41,-0.91 -0.92,-0.91l-11.08 0c-0.51,0 -0.92,0.41 -0.92,0.91zm0 -6.1c0,0.51 0.41,0.91 0.92,0.91l11.08 0c0.51,0 0.92,-0.4 0.92,-0.91 0,-0.5 -0.41,-0.91 -0.92,-0.91l-11.08 0c-0.51,0 -0.92,0.41 -0.92,0.91z"/></svg>