<svg fill-rule="evenodd" clip-rule="evenodd" viewBox="0 0 24 24"><path fill-rule="nonzero" d="M21.49 0l-18.98 0c-1.38,0 -2.51,1.13 -2.51,2.51l0 18.98c0,1.38 1.13,2.51 2.51,2.51l18.98 0c1.38,0 2.51,-1.13 2.51,-2.51l0 -18.98c0,-1.38 -1.13,-2.51 -2.51,-2.51zm0.84 21.49c0,0.46 -0.38,0.84 -0.84,0.84l-18.98 0c-0.46,0 -0.84,-0.38 -0.84,-0.84l0 -13.87 20.66 0 0 13.87zm0 -15.55l-20.66 0 0 -3.43c0,-0.46 0.38,-0.84 0.84,-0.84l18.98 0c0.46,0 0.84,0.38 0.84,0.84l0 3.43 0 0zm-15.24 9.11c0.14,0.12 0.26,0.25 0.37,0.4 0.2,0.26 0.31,0.58 0.37,0.9 0.08,0.42 0.1,0.86 0.1,1.28 0,0.27 0,0.55 0.02,0.81 0.01,0.09 0.03,0.22 0.11,0.36 0.09,0.03 0.22,0.05 0.31,0.06 0.22,0.03 0.4,0.14 0.54,0.31 0.15,0.19 0.2,0.42 0.2,0.65 0,0.69 -0.49,0.97 -1.11,0.97 -0.37,0 -0.73,-0.07 -1.06,-0.25 -0.31,-0.17 -0.57,-0.4 -0.74,-0.72 -0.18,-0.32 -0.26,-0.67 -0.26,-1.04 -0.01,-0.46 -0.02,-0.92 -0.04,-1.38 0,-0.18 0,-0.46 -0.04,-0.63 -0.03,-0.14 -0.09,-0.33 -0.19,-0.45 -0.11,-0.12 -0.24,-0.22 -0.38,-0.31 -0.15,-0.09 -0.33,-0.21 -0.45,-0.35 -0.14,-0.17 -0.18,-0.4 -0.18,-0.61 0,-0.37 0.15,-0.67 0.46,-0.87 0.17,-0.11 0.4,-0.25 0.54,-0.39 0.09,-0.09 0.14,-0.21 0.17,-0.33 0.04,-0.19 0.07,-0.37 0.07,-0.56 0.02,-0.53 0.03,-1.06 0.04,-1.6 0.01,-0.55 0.18,-1.06 0.58,-1.45 0.4,-0.39 0.92,-0.55 1.48,-0.55 0.62,0 1.11,0.28 1.11,0.96 0,0.24 -0.05,0.47 -0.2,0.66 -0.14,0.17 -0.32,0.28 -0.54,0.31 -0.08,0.01 -0.28,0.04 -0.34,0.08 -0.03,0.03 -0.05,0.14 -0.06,0.17 -0.04,0.31 -0.04,0.67 -0.04,0.98 -0.01,0.41 -0.03,0.84 -0.09,1.24 -0.06,0.32 -0.16,0.64 -0.35,0.91 -0.11,0.17 -0.25,0.31 -0.4,0.44zm9.82 0c-0.08,-0.07 -0.16,-0.14 -0.23,-0.21 -0.15,-0.18 -0.28,-0.38 -0.37,-0.6 -0.1,-0.25 -0.16,-0.52 -0.19,-0.78 -0.04,-0.33 -0.06,-0.68 -0.06,-1.01 0,-0.26 0,-0.54 -0.02,-0.8 0,-0.08 -0.02,-0.24 -0.1,-0.36 -0.09,-0.04 -0.22,-0.05 -0.31,-0.06 -0.22,-0.03 -0.4,-0.14 -0.53,-0.31 -0.16,-0.18 -0.21,-0.42 -0.21,-0.66 0,-0.67 0.48,-0.96 1.1,-0.96 0.37,0 0.73,0.08 1.06,0.25 0.31,0.17 0.56,0.41 0.74,0.71 0.19,0.32 0.27,0.68 0.28,1.04 0,0.47 -0.03,1.58 0.07,2.02 0.04,0.15 0.1,0.33 0.2,0.45 0.11,0.12 0.23,0.21 0.36,0.29 0.16,0.1 0.33,0.22 0.45,0.36 0.14,0.18 0.18,0.41 0.18,0.63 0,0.36 -0.14,0.67 -0.45,0.87 -0.17,0.1 -0.39,0.24 -0.53,0.38 -0.09,0.1 -0.14,0.21 -0.18,0.34 -0.05,0.23 -0.07,0.52 -0.07,0.76 -0.02,0.46 -0.02,0.92 -0.03,1.38 -0.02,0.56 -0.19,1.06 -0.59,1.46 -0.41,0.39 -0.93,0.55 -1.49,0.55 -0.28,0 -0.57,-0.06 -0.79,-0.24 -0.22,-0.18 -0.31,-0.44 -0.31,-0.73 0,-0.15 0.03,-0.31 0.09,-0.45 0.06,-0.14 0.14,-0.26 0.26,-0.35 0.12,-0.09 0.25,-0.14 0.39,-0.16 0.09,-0.01 0.23,-0.03 0.36,-0.12 0.03,-0.09 0.05,-0.23 0.06,-0.32 0.02,-0.26 0.01,-0.53 0.01,-0.79 0.01,-0.41 0.03,-0.86 0.1,-1.27 0.06,-0.32 0.16,-0.61 0.35,-0.88 0.11,-0.16 0.25,-0.3 0.4,-0.43z"/></svg>