<svg fill-rule="evenodd" clip-rule="evenodd" viewBox="0 0 24 24"><path d="M4.78 4.48c1.14,-2.65 3.98,-4.48 7.22,-4.48 3.3,0 6.15,1.73 7.23,4.48 0.39,-0.15 0.81,-0.23 1.24,-0.23 1.95,0 3.53,1.59 3.53,3.55 0,1.96 -1.58,4.85 -3.53,4.85l0 2.93c1.22,0.31 2.12,1.42 2.12,2.75 0,1.57 -1.27,2.84 -2.82,2.84 -1.56,0 -2.83,-1.27 -2.83,-2.84 0,-1.33 0.9,-2.44 2.12,-2.75l0 -2.93 -6.35 0 0 5.77c1.21,0.31 2.11,1.42 2.11,2.75 0,1.56 -1.26,2.83 -2.82,2.83 -1.56,0 -2.82,-1.27 -2.82,-2.83 0,-1.33 0.9,-2.44 2.11,-2.75l0 -5.77 -6.35 0 0 2.93c1.22,0.31 2.12,1.42 2.12,2.75 0,1.57 -1.27,2.84 -2.83,2.84 -1.55,0 -2.82,-1.27 -2.82,-2.84 0,-1.33 0.9,-2.44 2.12,-2.75l0 -2.93c-1.95,0 -3.53,-2.89 -3.53,-4.85 0,-1.96 1.58,-3.55 3.53,-3.55 0.44,0 0.86,0.09 1.25,0.23zm1.07 1.19c0.69,-2.4 3.15,-4.25 6.15,-4.25 3.1,0 5.51,1.76 6.13,4.23 0.05,0.21 0.2,0.38 0.38,0.46 0.23,0.13 0.51,0.12 0.74,-0.04 0.34,-0.25 0.76,-0.4 1.22,-0.4 1.17,0 2.12,0.96 2.12,2.13 0,1.18 -0.95,3.43 -2.12,3.43l-16.94 0c-1.17,0 -2.12,-2.25 -2.12,-3.43 0,-1.17 0.95,-2.13 2.12,-2.13 0.43,0 0.83,0.13 1.16,0.35 0.09,0.06 0.18,0.11 0.28,0.14 0.38,0.11 0.77,-0.11 0.88,-0.49zm-3.03 12.66c0,-0.79 0.64,-1.42 1.41,-1.42 0.78,0 1.42,0.63 1.42,1.42 0,0.78 -0.64,1.42 -1.42,1.42 -0.77,0 -1.41,-0.64 -1.41,-1.42zm15.53 0c0,-0.79 0.64,-1.42 1.42,-1.42 0.77,0 1.41,0.63 1.41,1.42 0,0.78 -0.64,1.42 -1.41,1.42 -0.78,0 -1.42,-0.64 -1.42,-1.42zm-6.35 1.42c-0.78,0 -1.41,0.63 -1.41,1.42 0,0.78 0.63,1.41 1.41,1.41 0.78,0 1.41,-0.63 1.41,-1.41 0,-0.79 -0.63,-1.42 -1.41,-1.42z"/></svg>