<svg fill-rule="evenodd" clip-rule="evenodd" viewBox="0 0 24 24"><path d="M11.07 0.13c0.61,-0.17 1.26,-0.17 1.87,0 0.4,0.12 0.76,0.33 1.1,0.58 0.38,0.28 0.73,0.6 1.09,0.91l6.15 5.34c0.04,0.03 0.07,0.06 0.1,0.09 0.49,0.42 1.01,0.86 1.38,1.39 0.27,0.4 0.48,0.84 0.6,1.31 0.17,0.62 0.15,1.3 0.15,1.93 0,0.04 0,0.09 0,0.13l0 4.41c0,0.84 0.01,1.69 -0.05,2.53 -0.04,0.63 -0.13,1.25 -0.38,1.83 -0.58,1.37 -1.69,2.44 -3.07,3 -0.6,0.24 -1.24,0.33 -1.88,0.38 -0.86,0.05 -1.72,0.04 -2.58,0.04l-7.09 0c-0.86,0 -1.72,0.01 -2.58,-0.04 -0.65,-0.05 -1.29,-0.14 -1.89,-0.38 -1.37,-0.56 -2.48,-1.63 -3.06,-3 -0.25,-0.58 -0.34,-1.2 -0.39,-1.83 -0.05,-0.84 -0.04,-1.68 -0.04,-2.53l0 -4.41c0,-0.04 0,-0.09 0,-0.13 0,-0.63 -0.02,-1.31 0.14,-1.93 0.13,-0.47 0.34,-0.91 0.61,-1.31 0.36,-0.53 0.89,-0.97 1.38,-1.39 0.03,-0.03 0.06,-0.06 0.1,-0.09l6.14 -5.34c0.36,-0.31 0.72,-0.63 1.1,-0.91 0.34,-0.25 0.69,-0.46 1.1,-0.58zm1.31 1.86c-0.25,-0.07 -0.51,-0.07 -0.75,0 -0.16,0.05 -0.32,0.16 -0.46,0.26 -0.35,0.26 -0.67,0.55 -1,0.84l-6.12 5.32c-0.36,0.31 -0.88,0.71 -1.14,1.1 -0.16,0.22 -0.27,0.47 -0.34,0.73 -0.12,0.45 -0.08,1.1 -0.08,1.57l0 4.37c0,0.81 -0.02,1.63 0.04,2.44 0.03,0.4 0.07,0.85 0.24,1.22 0.37,0.89 1.09,1.59 1.99,1.95 0.38,0.16 0.84,0.21 1.25,0.24 0.83,0.05 1.66,0.04 2.49,0.04l7.01 0c0.83,0 1.66,0.01 2.49,-0.04 0.41,-0.03 0.86,-0.08 1.25,-0.24 0.89,-0.36 1.61,-1.06 1.99,-1.95 0.16,-0.37 0.21,-0.82 0.24,-1.22 0.05,-0.81 0.04,-1.63 0.04,-2.44l0 -4.37c0,-0.47 0.04,-1.12 -0.08,-1.57 -0.07,-0.26 -0.19,-0.51 -0.34,-0.73 -0.26,-0.39 -0.78,-0.79 -1.14,-1.1l-6.12 -5.32c-0.33,-0.29 -0.66,-0.58 -1.01,-0.84 -0.13,-0.1 -0.29,-0.21 -0.45,-0.26z"/></svg>