<svg fill-rule="evenodd" clip-rule="evenodd" viewBox="0 0 24 24"><path fill-rule="nonzero" d="M8.5 11.09l-6.13 0c-1.31,-0.01 -2.36,-1.06 -2.37,-2.37l0 -6.13c0.01,-1.31 1.06,-2.36 2.37,-2.37l6.13 0c1.31,0.01 2.36,1.06 2.37,2.37l0 6.13c-0.01,1.31 -1.06,2.36 -2.37,2.37l0 0zm-6.13 -9.03c-0.29,0.01 -0.52,0.24 -0.53,0.53l0 6.13c0,0.3 0.24,0.53 0.53,0.53l6.13 0c0.29,0 0.53,-0.23 0.53,-0.53l0 -6.13c0,-0.29 -0.24,-0.53 -0.53,-0.53l-6.13 0z"/><path fill-rule="nonzero" d="M21.63 11.09l-6.13 0c-1.31,-0.01 -2.36,-1.06 -2.37,-2.37l0 -6.13c0.01,-1.31 1.06,-2.36 2.37,-2.37l6.13 0c1.31,0.01 2.37,1.06 2.37,2.37l0 6.13c0,1.31 -1.06,2.36 -2.37,2.37l0 0zm-6.13 -9.03c-0.29,0 -0.53,0.24 -0.53,0.53l0 6.13c0,0.3 0.24,0.53 0.53,0.53l6.13 0c0.29,0 0.53,-0.23 0.53,-0.53l0 -6.13c-0.01,-0.29 -0.24,-0.52 -0.53,-0.53l-6.13 0z"/><path fill-rule="nonzero" d="M8.5 23.78l-6.13 0c-1.31,-0.01 -2.36,-1.06 -2.37,-2.37l0 -6.13c0.01,-1.31 1.06,-2.37 2.37,-2.37l6.13 0c1.31,0 2.36,1.06 2.37,2.37l0 6.13c-0.01,1.31 -1.06,2.36 -2.37,2.37l0 0zm-6.13 -9.03c-0.29,0 -0.53,0.23 -0.53,0.53l0 6.13c0.01,0.29 0.24,0.52 0.53,0.53l6.13 0c0.29,0 0.53,-0.24 0.53,-0.53l0 -6.13c0,-0.3 -0.24,-0.53 -0.53,-0.53l-6.13 0z"/><path fill-rule="nonzero" d="M21.63 23.78l-6.13 0c-1.31,-0.01 -2.36,-1.06 -2.37,-2.37l0 -6.13c0.01,-1.31 1.06,-2.37 2.37,-2.37l6.13 0c1.31,0 2.37,1.06 2.37,2.37l0 6.13c0,1.31 -1.06,2.36 -2.37,2.37l0 0zm-6.13 -9.03c-0.29,0 -0.53,0.23 -0.53,0.53l0 6.13c0,0.29 0.24,0.53 0.53,0.53l6.13 0c0.29,-0.01 0.52,-0.24 0.53,-0.53l0 -6.13c0,-0.3 -0.24,-0.53 -0.53,-0.53l-6.13 0z"/></svg>