<svg fill-rule="evenodd" clip-rule="evenodd" viewBox="0 0 24 24"><path d="M15.02 18.86l-1.61 1.55c-0.09,0.08 -0.22,0.11 -0.33,0.06 -0.12,-0.05 -0.19,-0.16 -0.19,-0.29l0 -6.92c0,-0.5 -0.41,-0.91 -0.92,-0.91 -0.51,0 -0.92,0.41 -0.92,0.91l0 6.86c0,0.13 -0.07,0.24 -0.19,0.29 -0.12,0.05 -0.25,0.02 -0.34,-0.07l-1.58 -1.59c-0.17,-0.18 -0.41,-0.27 -0.65,-0.27 -0.51,0 -0.93,0.41 -0.93,0.92 0,0.24 0.1,0.48 0.28,0.65l3.68 3.68c0.17,0.18 0.4,0.27 0.64,0.27 0.24,0 0.47,-0.09 0.64,-0.26l3.69 -3.56c0.22,-0.19 0.35,-0.45 0.35,-0.72 0,-0.51 -0.42,-0.92 -0.92,-0.92 -0.26,0 -0.51,0.11 -0.7,0.32zm-9.2 -12.07c0,0 0.01,0 0.01,0l0.15 0c0.44,0 0.82,-0.3 0.9,-0.73 0.5,-2.43 2.63,-4.18 5.11,-4.18 2.48,0 4.62,1.75 5.12,4.18 0.08,0.43 0.46,0.73 0.92,0.73l0.09 0c2.21,0 3.99,1.79 3.99,3.99 0,0.98 -0.36,1.93 -1.01,2.66 -0.15,0.17 -0.24,0.39 -0.24,0.61 0,0.27 0.12,0.52 0.32,0.7 0.17,0.15 0.38,0.23 0.61,0.23 0.26,0 0.51,-0.12 0.69,-0.32 0.98,-1.07 1.52,-2.47 1.52,-3.92 0,-2.95 -2.19,-5.43 -5.11,-5.79 -0.12,-0.01 -0.21,-0.09 -0.25,-0.2 -0.99,-2.84 -3.66,-4.75 -6.67,-4.75 -3.01,0 -5.68,1.91 -6.67,4.75 -0.04,0.11 -0.13,0.19 -0.25,0.2 -2.89,0.39 -5.05,2.86 -5.05,5.78 0,1.42 0.52,2.8 1.48,3.89 0.18,0.31 0.49,0.49 0.82,0.49 0.51,0 0.92,-0.41 0.92,-0.92 0,-0.28 -0.13,-0.54 -0.36,-0.73 -0.67,-0.75 -1.03,-1.7 -1.03,-2.68 0,-2.2 1.78,-3.99 3.99,-3.99z"/></svg>