<svg fill-rule="evenodd" clip-rule="evenodd" viewBox="0 0 24 24"><path fill-rule="nonzero" d="M19.74 24l-2.98 0 -0.03 0 -0.02 0 -9.42 0 -0.02 0 -0.03 0 -2.98 0c-2.35,0 -4.26,-1.91 -4.26,-4.26l0 -12.12 0 -0.03 0 -0.02 0 -3.31c0,-2.35 1.91,-4.26 4.26,-4.26l15.48 0c2.35,0 4.26,1.91 4.26,4.26l0 3.31 0 0.02 0 0.03 0 12.12c0,2.35 -1.91,4.26 -4.26,4.26zm-3.86 -1.7l0 -13.85 -7.76 0 0 13.85 7.76 0zm1.71 -13.85l0 13.85 2.15 0c1.41,0 2.56,-1.15 2.56,-2.56l0 -11.29 -4.71 0zm-11.18 13.85l0 -13.85 -4.71 0 0 11.29c0,1.41 1.15,2.56 2.56,2.56l2.15 0zm-4.71 -15.56l5.54 0 0.03 0 0.02 0 9.42 0 0.02 0 0.03 0 5.54 0 0 -2.48c0,-1.41 -1.15,-2.56 -2.56,-2.56l-15.48 0c-1.41,0 -2.56,1.15 -2.56,2.56l0 2.48z"/></svg>