<svg fill="currentColor" fill-rule="nonzero" viewBox="0 0 24 24"><path d="M17 22l0 -20 3 0c1.1,0 2,0.9 2,2l0 16c0,1.1 -0.9,2 -2,2l-3 0zm-2 -20l0 20 -11 0c-1.1,0 -2,-0.9 -2,-2l0 -16c0,-1.1 0.9,-2 2,-2l11 0zm-11 22l12 0 4 0c2.2,0 4,-1.8 4,-4l0 -16c0,-2.2 -1.8,-4 -4,-4l-16 0c-2.2,0 -4,1.8 -4,4l0 16c0,2.2 1.8,4 4,4zm6.68 -11.28l0.01 -0.01 0.01 -0.01c0.4,-0.4 0.4,-1 0,-1.4l-3 -3c-0.4,-0.4 -1,-0.4 -1.4,0 -0.4,0.4 -0.4,1 0,1.4l2.3 2.3 -2.3 2.3c-0.4,0.4 -0.4,1 0,1.4 0.2,0.2 0.4,0.3 0.7,0.3 0.3,0 0.5,-0.1 0.7,-0.3l2.98 -2.98z"/></svg>