<svg xmlns="http://www.w3.org/2000/svg" viewBox="0 0 24 24" fill="currentColor"><path fill-rule="nonzero" d="M11 1c0,-0.55 0.45,-1 1,-1 0.55,0 1,0.45 1,1l0 2c0,0.55 -0.45,1 -1,1 -0.55,0 -1,-0.45 -1,-1l0 -2zm7 11c0,3.31 -2.69,6 -6,6 -3.31,0 -6,-2.69 -6,-6 0,-3.31 2.69,-6 6,-6 3.31,0 6,2.69 6,6zm-9.94 0c0,2.17 1.76,3.94 3.94,3.94l0 -7.88c-2.18,0 -3.94,1.77 -3.94,3.94zm12.43 -8.49c-0.4,-0.39 -1.03,-0.39 -1.42,0l-1.41 1.42c-0.39,0.39 -0.39,1.02 0,1.41 0.39,0.39 1.02,0.39 1.41,0l1.42 -1.41c0.39,-0.39 0.39,-1.02 0,-1.42zm-19.49 9.49c-0.55,0 -1,-0.45 -1,-1 0,-0.55 0.45,-1 1,-1l2 0c0.55,0 1,0.45 1,1 0,0.55 -0.45,1 -1,1l-2 0zm2.51 -9.49c-0.39,0.4 -0.39,1.03 0,1.42l1.42 1.41c0.39,0.39 1.02,0.39 1.41,0 0.39,-0.39 0.39,-1.02 0,-1.41l-1.41 -1.42c-0.39,-0.39 -1.03,-0.39 -1.42,0zm7.49 17.49c0,-0.55 0.45,-1 1,-1 0.55,0 1,0.45 1,1l0 2c0,0.55 -0.45,1 -1,1 -0.55,0 -1,-0.45 -1,-1l0 -2zm-4.66 -3.34c-0.39,-0.39 -1.02,-0.39 -1.41,0l-1.42 1.41c-0.39,0.39 -0.39,1.02 0,1.42 0.39,0.39 1.03,0.39 1.42,0l1.41 -1.42c0.39,-0.39 0.39,-1.02 0,-1.41zm14.66 -4.66c-0.55,0 -1,-0.45 -1,-1 0,-0.55 0.45,-1 1,-1l2 0c0.55,0 1,0.45 1,1 0,0.55 -0.45,1 -1,1l-2 0zm1.13 9.88l-0.41 -1.09 -3.51 0 -0.41 1.11c-0.17,0.43 -0.3,0.72 -0.42,0.87 -0.11,0.16 -0.3,0.23 -0.56,0.23 -0.22,0 -0.41,-0.08 -0.58,-0.24 -0.17,-0.16 -0.25,-0.34 -0.25,-0.55 0,-0.11 0.02,-0.24 0.05,-0.36 0.04,-0.13 0.11,-0.3 0.2,-0.53l2.21 -5.61c0.06,-0.16 0.14,-0.35 0.23,-0.58 0.08,-0.22 0.18,-0.41 0.28,-0.56 0.1,-0.15 0.23,-0.27 0.39,-0.36 0.17,-0.09 0.37,-0.14 0.61,-0.14 0.24,0 0.45,0.05 0.61,0.14 0.16,0.09 0.29,0.21 0.39,0.35 0.1,0.15 0.19,0.31 0.26,0.47 0.07,0.17 0.15,0.39 0.26,0.67l2.26 5.58c0.17,0.42 0.26,0.73 0.26,0.92 0,0.2 -0.08,0.39 -0.25,0.55 -0.17,0.17 -0.37,0.25 -0.6,0.25 -0.14,0 -0.26,-0.02 -0.36,-0.07 -0.1,-0.05 -0.18,-0.12 -0.25,-0.2 -0.06,-0.09 -0.13,-0.22 -0.21,-0.39 -0.08,-0.18 -0.14,-0.33 -0.2,-0.46zm-3.46 -2.4l2.58 0 -1.3 -3.56 -1.28 3.56z"/></svg>