<?xml version="1.0" encoding="UTF-8"?>
<!DOCTYPE svg PUBLIC "-//W3C//DTD SVG 1.1//EN" "http://www.w3.org/Graphics/SVG/1.1/DTD/svg11.dtd">
<!-- Creator: CorelDRAW X8 -->
<svg xmlns="http://www.w3.org/2000/svg" xml:space="preserve" width="150px" height="124px" version="1.1" style="shape-rendering:geometricPrecision; text-rendering:geometricPrecision; image-rendering:optimizeQuality; fill-rule:evenodd; clip-rule:evenodd"
viewBox="0 0 150 124"
 xmlns:xlink="http://www.w3.org/1999/xlink">
 <defs>
  <style type="text/css">
   <![CDATA[
    .fil1 {fill:url(#id0)}
    .fil2 {fill:url(#id1)}
    .fil0 {fill:url(#id2)}
   ]]>
  </style>
  <linearGradient id="id0" gradientUnits="userSpaceOnUse" x1="0.362598" y1="61.7079" x2="64.5154" y2="61.7079">
   <stop offset="0" style="stop-opacity:1; stop-color:#F1B837"/>
   <stop offset="1" style="stop-opacity:1; stop-color:#E3AF36"/>
  </linearGradient>
  <linearGradient id="id1" gradientUnits="userSpaceOnUse" xlink:href="#id0" x1="-0" y1="109.296" x2="95.4248" y2="109.296">
  </linearGradient>
  <linearGradient id="id2" gradientUnits="userSpaceOnUse" xlink:href="#id0" x1="24.6236" y1="61.8307" x2="149.999" y2="61.8307">
  </linearGradient>
 </defs>
 <g id="Layer_x0020_1">
  <metadata id="CorelCorpID_0Corel-Layer"/>
  <g id="_631166016">
   <path class="fil0" d="M39 0l70 0c17,1 34,16 34,39 0,18 -11,30 -24,35l31 50 -34 0 -49 -77 40 0c9,0 10,-18 -1,-18l-81 0 14 -29z"/>
   <polygon class="fil1" points="15,47 47,47 65,76 0,76 "/>
   <polygon class="fil2" points="0,95 77,95 95,124 15,124 "/>
  </g>
 </g>
</svg>
